<?xml version="1.0" encoding="utf-8"?>
<!-- Generator: Adobe Illustrator 14.0.0, SVG Export Plug-In . SVG Version: 6.00 Build 43363)  -->
<!DOCTYPE svg PUBLIC "-//W3C//DTD SVG 1.1//EN" "http://www.w3.org/Graphics/SVG/1.1/DTD/svg11.dtd">
<svg version="1.1" id="Text" xmlns="http://www.w3.org/2000/svg" xmlns:xlink="http://www.w3.org/1999/xlink" x="0px" y="0px"
	 width="215px" height="270px" viewBox="0 0 215 270" enable-background="new 0 0 215 270" xml:space="preserve">
	 
<polygon fill="#FFFFFF" points="15.821,19.676 27.213,21.575 26.583,17.301 16.453,19.781 "/>
<polygon fill="#FFFFFF" points="13.42,10.857 14.734,18.698 22.162,10.857 "/>
<polygon fill="#FFFFFF" points="29.331,35.932 28.491,30.234 16.062,19.876 14.976,20.143 16.631,30.028 "/>
<polygon fill="#FFFFFF" points="15.821,19.676 16.453,19.781 26.583,17.301 25.632,10.857 22.162,10.857 14.734,18.698 
	14.976,20.143 16.062,19.876 "/>
<polygon fill="#FFFFFF" points="27.213,21.575 15.821,19.676 16.062,19.876 16.062,19.876 28.491,30.234 "/>
<polygon fill="#FFFFFF" points="15.821,19.676 16.062,19.876 16.062,19.876 "/>
<polygon fill="#FFFFFF" points="49.561,10.857 37.351,10.857 36.478,17.291 49.604,11.151 "/>
<polygon fill="#FFFFFF" points="73.551,10.857 61.317,10.857 59.618,23.285 68.336,44.195 "/>
<polygon fill="#FFFFFF" points="56.146,48.647 55.661,52.204 54.891,46.986 35.859,21.844 35.319,25.834 46.229,40.275 
	34.037,35.287 33.675,37.952 48.518,44.852 64.474,68.888 65.671,61.231 "/>
<polygon fill="#FFFFFF" points="35.319,25.834 34.037,35.287 46.229,40.275 "/>
<polygon fill="#FFFFFF" points="65.671,61.231 68.336,44.195 59.618,23.285 56.146,48.647 "/>
<polygon fill="#FFFFFF" points="49.604,11.151 36.478,17.291 35.859,21.844 54.891,46.986 "/>
<polygon fill="#FFFFFF" points="31.737,52.238 30.64,44.811 17.083,32.728 18.887,43.496 40.993,64.276 42.315,55.213 
	32.518,46.482 "/>
<polygon fill="#FFFFFF" points="46.472,63.255 58.98,77.549 47.318,68.664 47.604,70.491 62.092,84.11 63.641,74.218 45.686,58.217 
	"/>
<polygon fill="#FFFFFF" points="47.318,68.664 58.98,77.549 46.472,63.255 "/>
<polygon fill="#FFFFFF" points="16.631,30.028 17.083,32.728 30.64,44.811 29.331,35.932 "/>
<polygon fill="#FFFFFF" points="48.518,44.852 33.675,37.952 32.518,46.482 42.315,55.213 43.715,45.615 45.686,58.217 
	63.641,74.218 64.474,68.888 "/>
<polygon fill="#FFFFFF" points="26.36,88.132 37.512,88.132 38.083,84.219 24.474,76.872 "/>
<polygon fill="#FFFFFF" points="50.362,88.132 61.463,88.132 62.092,84.11 47.604,70.491 "/>
<polygon fill="#FFFFFF" points="24.474,76.872 38.083,84.219 40.993,64.276 18.887,43.496 "/>
<polygon fill="#FFFFFF" points="83.355,88.132 86.033,88.132 83.355,84.594 "/>
<polygon fill="#FFFFFF" points="90.93,88.132 83.355,42.945 83.355,80.21 86.658,88.132 "/>
<polygon fill="#FFFFFF" points="83.355,80.21 83.355,84.594 86.033,88.132 86.658,88.132 "/>
<polygon fill="#FFFFFF" points="88.68,10.857 83.355,10.857 83.355,33.994 86.118,29.158 91.287,88.132 95.011,88.132 
	95.011,69.765 "/>
<polygon fill="#FFFFFF" points="86.118,29.158 83.355,33.994 83.355,42.945 90.93,88.132 91.287,88.132 "/>
<polygon fill="#FFFFFF" points="88.68,10.857 95.011,69.765 95.011,10.857 "/>
<polygon fill="#FFFFFF" points="145.644,59.719 132.708,86.843 133.125,88.132 139.943,88.132 145.644,68.216 "/>
<polygon fill="#FFFFFF" points="145.644,76.963 140.857,88.132 145.644,88.132 "/>
<polygon fill="#FFFFFF" points="145.644,68.216 139.943,88.132 140.857,88.132 145.644,76.963 "/>
<polygon fill="#FFFFFF" points="118.52,10.794 105.434,10.794 105.434,88.132 106.095,88.132 118.592,11.034 "/>
<polygon fill="#FFFFFF" points="138.048,10.794 133.989,22.297 133.989,37.796 139.258,10.794 "/>
<polygon fill="#FFFFFF" points="133.989,41.774 133.989,62.77 127.454,40.812 122.421,55.072 131.595,83.404 145.644,34.988 
	145.644,14.225 "/>
<polygon fill="#FFFFFF" points="145.644,10.794 139.258,10.794 133.989,37.796 133.989,41.774 145.644,14.225 "/>
<polygon fill="#FFFFFF" points="117.09,88.132 117.09,70.177 110.753,88.132 "/>
<polygon fill="#FFFFFF" points="118.592,11.034 106.095,88.132 110.753,88.132 117.09,70.177 117.09,38.609 122.421,55.072 
	127.454,40.812 "/>
<polygon fill="#FFFFFF" points="133.989,10.794 133.989,22.297 138.048,10.794 "/>
<polygon fill="#FFFFFF" points="132.708,86.843 145.644,59.719 145.644,34.988 131.595,83.404 "/>
<polygon fill="#FFFFFF" points="156.065,10.794 156.065,31.803 162.079,10.794 "/>
<path fill="#FFFFFF" d="M174.382,10.794h-0.381l-5.102,11.903h5.854c1.353,0,2.563,0.369,3.63,1.106l7.598-8.865
	C182.702,12.177,178.837,10.794,174.382,10.794z"/>
<path fill="#FFFFFF" d="M192.699,29.235c0-3.478-0.841-6.614-2.521-9.412l-10.097,5.647c0.842,1.144,1.271,2.458,1.271,3.95v4.404
	l11.348-3.11V29.235z"/>
<polygon fill="#FFFFFF" points="192.699,32.701 181.352,34.483 181.352,45.72 192.699,33.355 "/>
<polygon fill="#FFFFFF" points="181.352,33.824 181.352,34.483 192.699,32.701 192.699,30.714 "/>
<polygon fill="#FFFFFF" points="167.722,76.6 167.722,25.448 156.065,52.645 156.065,88.132 160.348,88.132 169.52,76.6 "/>
<path fill="#FFFFFF" d="M181.352,69.877c0,1.81-0.639,3.382-1.913,4.718c-1.274,1.337-2.837,2.005-4.686,2.005h-1.692
	l-11.533,11.532H172.5l20.199-29.874V56.96l-11.348,11.347V69.877z"/>
<polygon fill="#FFFFFF" points="192.699,44.681 181.352,50.264 181.352,61.722 192.699,47.454 "/>
<polygon fill="#FFFFFF" points="181.352,61.722 181.352,68.307 192.699,56.96 192.699,47.454 "/>
<polygon fill="#FFFFFF" points="169.52,76.6 160.348,88.132 161.527,88.132 173.061,76.6 "/>
<path fill="#FFFFFF" d="M174.382,88.132c2.004,0,3.888-0.289,5.658-0.855l12.659-20.064v-4.25l-19.813,25.169H174.382z"/>
<polygon fill="#FFFFFF" points="172.886,88.132 192.699,62.963 192.699,58.258 172.5,88.132 "/>
<polygon fill="#FFFFFF" points="192.699,33.355 181.352,45.72 181.352,50.264 192.699,44.681 "/>
<path fill="#FFFFFF" d="M187.365,16.222c-0.449-0.457-0.911-0.884-1.385-1.284l-7.598,8.865c0.358,0.248,0.7,0.536,1.026,0.868
	c0.25,0.255,0.47,0.523,0.672,0.799l10.097-5.647C189.413,18.553,188.475,17.353,187.365,16.222z"/>
<path fill="#FFFFFF" d="M187.334,82.705c3.576-3.618,5.365-7.976,5.365-13.074v-2.418L180.04,87.277
	C182.741,86.411,185.173,84.891,187.334,82.705z"/>
<polygon fill="#FFFFFF" points="167.722,22.697 168.899,22.697 174.001,10.794 162.079,10.794 156.065,31.803 156.065,52.645 
	167.722,25.448 "/>
<polygon fill="#FFFFFF" points="13.42,127.845 24.83,133.55 24.83,108.08 13.42,104.63 "/>
<polygon fill="#FFFFFF" points="13.42,152.122 24.83,144.958 24.83,140.81 13.42,129.152 "/>
<polygon fill="#FFFFFF" points="13.42,127.845 13.42,129.152 24.83,140.81 24.83,133.55 "/>
<polygon fill="#FFFFFF" points="13.42,104.058 24.83,105.932 24.83,101.702 13.42,99.116 "/>
<polygon fill="#FFFFFF" points="13.42,99.116 24.83,101.702 24.83,95.314 13.42,95.314 "/>
<polygon fill="#FFFFFF" points="13.42,104.63 24.83,108.08 24.83,105.932 13.42,104.058 "/>
<path fill="#FFFFFF" d="M13.47,156.464c0.1,1.486,0.36,2.905,0.779,4.255c2.658-2.27,6.418-5.567,10.581-9.252v-6.116L13.47,156.464
	z"/>
<path fill="#FFFFFF" d="M24.83,144.958l-11.41,7.164v2.953c0,0.47,0.019,0.933,0.049,1.39l11.36-11.112V144.958z"/>
<path fill="#FFFFFF" d="M33.598,161.311c-0.639,0.198-1.321,0.301-2.045,0.301c-1.85,0-3.434-0.646-4.749-1.941
	c-0.507-0.5-0.914-1.041-1.226-1.623l-7.792,8.958c0.319,0.368,0.648,0.73,1,1.083c3.578,3.576,7.935,5.365,13.075,5.365
	c4.703,0,8.776-1.509,12.22-4.519L33.598,161.311z"/>
<path fill="#FFFFFF" d="M24.83,151.468c-4.163,3.685-7.923,6.982-10.581,9.252c0.714,2.292,1.893,4.388,3.536,6.285l7.792-8.958
	c-0.497-0.927-0.748-1.958-0.748-3.096V151.468z"/>
<polygon fill="#FFFFFF" points="50.362,129.554 38.212,143.522 38.212,144.27 50.362,145.788 "/>
<polygon fill="#FFFFFF" points="38.212,150.611 38.212,154.737 50.362,152.1 50.362,146.167 "/>
<polygon fill="#FFFFFF" points="50.362,145.788 38.212,144.27 38.212,150.611 50.362,146.167 "/>
<path fill="#FFFFFF" d="M38.212,132.416v7.128c4.821-4.315,9.215-8.266,12.15-10.91v-7.425L38.212,132.416z"/>
<polygon fill="#FFFFFF" points="38.212,120.214 50.362,119.256 50.362,115.799 38.212,112.125 "/>
<polygon fill="#FFFFFF" points="38.212,97.536 50.362,101.671 50.362,95.314 38.212,95.314 "/>
<polygon fill="#FFFFFF" points="38.212,108.128 50.362,110.123 50.362,107.488 38.212,104.734 "/>
<polygon fill="#FFFFFF" points="38.212,104.734 50.362,107.488 50.362,101.671 38.212,97.536 "/>
<polygon fill="#FFFFFF" points="38.212,112.125 50.362,115.799 50.362,110.123 38.212,108.128 "/>
<polygon fill="#FFFFFF" points="50.362,119.256 38.212,120.214 38.212,132.416 50.362,121.209 "/>
<path fill="#FFFFFF" d="M38.212,143.522l12.15-13.968v-0.92c-2.935,2.644-7.329,6.594-12.15,10.91V143.522z"/>
<path fill="#FFFFFF" d="M36.271,159.67c-0.265,0.264-0.543,0.494-0.83,0.704l14.074,0.438c0.562-1.785,0.847-3.696,0.847-5.738
	v-1.419l-12.497,3.472C37.549,158.067,37.022,158.917,36.271,159.67z"/>
<path fill="#FFFFFF" d="M38.212,154.951c0,0.774-0.12,1.498-0.347,2.176l12.497-3.472V152.1l-12.15,2.638V154.951z"/>
<path fill="#FFFFFF" d="M33.598,161.311l10.483,7.624c0.289-0.253,0.574-0.513,0.854-0.785c2.191-2.143,3.716-4.59,4.58-7.337
	l-14.074-0.438C34.871,160.79,34.257,161.105,33.598,161.311z"/>
<polygon fill="#FFFFFF" points="60.721,172.59 72.378,172.59 72.378,171.211 60.721,166.412 "/>
<polygon fill="#FFFFFF" points="72.378,147.54 60.721,150.778 60.721,151.696 72.378,155.581 "/>
<polygon fill="#FFFFFF" points="60.721,155.904 60.721,165.49 72.378,162.692 72.378,156.708 "/>
<polygon fill="#FFFFFF" points="72.378,155.581 60.721,151.696 60.721,155.904 72.378,156.708 "/>
<path fill="#FFFFFF" d="M60.721,149.852l11.657-2.53v-3.842H79.1c2.776,0,5.324-0.548,7.648-1.639l-26.027-2.946V149.852z"/>
<polygon fill="#FFFFFF" points="60.721,115.836 72.378,118.356 72.378,112.477 60.721,109.835 "/>
<path fill="#FFFFFF" d="M80.399,95.35c-0.427-0.021-0.858-0.035-1.299-0.035h-5.088l20.755,19.509l-10.384-5.606
	c1.096,1.19,1.659,2.726,1.682,4.606l11.291,3.843v-3.913c0-1.11-0.072-2.175-0.21-3.203L80.399,95.35z"/>
<path fill="#FFFFFF" d="M92.668,100.68c-3.109-3.3-7.201-5.073-12.269-5.33l16.747,15.202
	C96.628,106.671,95.138,103.379,92.668,100.68z"/>
<path fill="#FFFFFF" d="M60.721,105.197l11.657,3.968v-1.949h7.031c0.534,0,1.039,0.047,1.517,0.134L60.721,96.441V105.197z"/>
<path fill="#FFFFFF" d="M60.721,95.314v1.127l20.205,10.909c1.324,0.241,2.434,0.811,3.324,1.717
	c0.046,0.047,0.087,0.101,0.133,0.15l10.384,5.606L74.012,95.314H60.721z"/>
<polygon fill="#FFFFFF" points="86.068,115.579 86.068,121.317 97.355,123.759 97.355,118.137 "/>
<path fill="#FFFFFF" d="M86.064,113.824c0,0.039,0.004,0.075,0.004,0.116v1.64l11.287,2.558v-0.471L86.064,113.824z"/>
<polygon fill="#FFFFFF" points="60.721,109.835 72.378,112.477 72.378,109.165 60.721,105.197 "/>
<polygon fill="#FFFFFF" points="60.721,136.347 72.378,131.326 72.378,126.015 60.721,126.74 "/>
<path fill="#FFFFFF" d="M97.355,124.979v-0.516l-11.287,0.702v0.06c0,1.035-0.209,1.983-0.615,2.851l11.308,1.74
	C97.153,128.284,97.355,126.674,97.355,124.979z"/>
<path fill="#FFFFFF" d="M87.427,135.749l-3.548-5.543c-1.085,1.008-2.355,1.582-3.812,1.712l8.893,8.676
	c1.075-0.715,2.096-1.559,3.062-2.541c1.902-1.936,3.292-4.086,4.176-6.445L87.427,135.749z"/>
<path fill="#FFFFFF" d="M96.196,131.607c0.22-0.584,0.407-1.182,0.564-1.792l-11.308-1.74c-0.319,0.684-0.755,1.319-1.327,1.898
	c-0.082,0.081-0.165,0.154-0.248,0.231l3.548,5.543L96.196,131.607z"/>
<polygon fill="#FFFFFF" points="60.721,126.74 72.378,126.015 72.378,118.356 60.721,115.836 "/>
<polygon fill="#FFFFFF" points="97.355,123.759 86.068,121.317 86.068,125.165 97.355,124.463 "/>
<path fill="#FFFFFF" d="M79.409,131.947h-7.031v-0.622l-11.657,5.021v2.547l26.027,2.946c0.762-0.357,1.498-0.774,2.211-1.248
	l-8.893-8.676C79.851,131.936,79.632,131.947,79.409,131.947z"/>
<polygon fill="#FFFFFF" points="60.721,150.778 72.378,147.54 72.378,147.321 60.721,149.852 "/>
<polygon fill="#FFFFFF" points="60.721,166.412 72.378,171.211 72.378,162.692 60.721,165.49 "/>
<polygon fill="#FFFFFF" points="37.473,225.488 25.816,245.866 25.816,255.829 37.473,243.985 "/>
<polygon fill="#FFFFFF" points="37.473,257.047 37.473,243.985 25.816,255.829 25.816,257.047 "/>
<polygon fill="#FFFFFF" points="49.808,188.781 46.332,191.49 48.893,191.49 49.808,190.666 "/>
<polygon fill="#FFFFFF" points="49.808,190.99 49.303,191.49 49.808,191.49 "/>
<polygon fill="#FFFFFF" points="49.808,190.666 48.893,191.49 49.303,191.49 49.808,190.99 "/>
<polygon fill="#FFFFFF" points="25.816,191.613 33.119,179.771 28.536,179.771 13.42,189.306 13.42,191.49 25.816,191.49 "/>
<polygon fill="#FFFFFF" points="38.645,179.771 25.816,193.515 25.816,199.027 40.765,179.771 "/>
<polygon fill="#FFFFFF" points="46.992,179.771 43.521,179.771 25.816,199.413 25.816,204.591 "/>
<polygon fill="#FFFFFF" points="40.765,179.771 25.816,199.027 25.816,199.413 43.521,179.771 "/>
<polygon fill="#FFFFFF" points="33.119,179.771 25.816,191.613 25.816,193.515 38.645,179.771 "/>
<polygon fill="#FFFFFF" points="13.42,179.771 13.42,189.306 28.536,179.771 "/>
<polygon fill="#FFFFFF" points="25.816,212.278 37.473,201.778 37.473,198.397 25.816,207.485 "/>
<polygon fill="#FFFFFF" points="25.816,214.754 25.816,227.152 37.473,212.36 37.473,203.208 "/>
<polygon fill="#FFFFFF" points="25.816,214.754 37.473,203.208 37.473,201.778 25.816,212.278 "/>
<polygon fill="#FFFFFF" points="46.992,179.771 25.816,204.591 25.816,207.485 37.473,198.397 37.473,191.49 46.332,191.49 
	49.808,188.781 49.808,179.771 "/>
<polygon fill="#FFFFFF" points="25.816,245.866 37.473,225.488 37.473,212.36 25.816,227.152 "/>
<path fill="#FFFFFF" d="M71.207,192.322l3.199-13.452c-1.49,0.136-2.909,0.444-4.265,0.916l0.82,12.801
	C71.043,192.498,71.12,192.407,71.207,192.322z"/>
<polygon fill="#FFFFFF" points="57.824,212.068 57.824,217.59 69.234,208.389 69.234,206.04 "/>
<polygon fill="#FFFFFF" points="69.234,204.102 57.824,206.855 57.824,207.146 69.234,205.354 "/>
<polygon fill="#FFFFFF" points="69.234,205.354 57.824,207.146 57.824,212.068 69.234,206.04 "/>
<polygon fill="#FFFFFF" points="57.824,237.734 69.234,220.733 69.234,213.756 57.824,226.173 "/>
<polygon fill="#FFFFFF" points="57.824,226.173 69.234,213.756 69.234,208.389 57.824,217.59 "/>
<path fill="#FFFFFF" d="M69.234,229.742l-11.401,10.212c0.047,2.092,0.399,4.058,1.06,5.896l11.64-2.562
	c-0.863-1.132-1.299-2.444-1.299-3.942V229.742z"/>
<path fill="#FFFFFF" d="M57.824,239.471c0,0.162,0.006,0.323,0.009,0.483l11.401-10.212v-9.009l-11.41,17.001V239.471z"/>
<path fill="#FFFFFF" d="M74.352,245.822c-0.622-0.144-1.205-0.375-1.754-0.693l-3.572,11.432c0.67,0.283,1.358,0.526,2.067,0.725
	L74.352,245.822z"/>
<path fill="#FFFFFF" d="M71.207,244.065c-0.251-0.247-0.471-0.509-0.673-0.776l-11.64,2.562c0.885,2.458,2.315,4.69,4.296,6.695
	c1.756,1.776,3.703,3.11,5.837,4.015l3.572-11.432C72.105,244.845,71.641,244.493,71.207,244.065z"/>
<path fill="#FFFFFF" d="M69.234,197.04c0-0.361,0.032-0.71,0.082-1.051l-4.124-6.944l2.49-8.182
	c-1.581,0.847-3.058,1.952-4.431,3.318c-3.62,3.598-5.427,7.966-5.427,13.105l11.41,4.27V197.04z"/>
<polygon fill="#FFFFFF" points="69.234,201.557 57.824,197.287 57.824,206.855 69.234,204.102 "/>
<path fill="#FFFFFF" d="M69.316,195.989c0.189-1.285,0.738-2.42,1.645-3.402l-0.82-12.801c-0.845,0.295-1.665,0.651-2.458,1.077
	l-2.49,8.182L69.316,195.989z"/>
<path fill="#FFFFFF" d="M78.089,178.866l-6.882,13.456c1.231-1.213,2.702-1.851,4.401-1.927l4.26-11.286
	C79.285,179.002,78.692,178.922,78.089,178.866z"/>
<path fill="#FFFFFF" d="M76.264,178.786c-0.631,0-1.25,0.026-1.858,0.084l-3.199,13.452l6.882-13.456
	C77.492,178.812,76.883,178.786,76.264,178.786z"/>
<path fill="#FFFFFF" d="M91.251,186.394c-0.561-0.754-1.187-1.482-1.882-2.181c-0.101-0.104-0.206-0.199-0.31-0.299l-0.979,9.054
	l-4.904-3.923l4.703-6.189c-0.741-0.609-1.514-1.147-2.312-1.621l-8.05,9.321c1.189,0.269,2.244,0.853,3.157,1.767
	c1.295,1.295,1.942,2.868,1.942,4.718v19.722L91.251,186.394z"/>
<path fill="#FFFFFF" d="M79.868,179.109l-4.26,11.286c0.117-0.006,0.23-0.016,0.348-0.016c0.544,0,1.063,0.062,1.561,0.176
	l8.05-9.321C83.807,180.194,81.908,179.485,79.868,179.109z"/>
<path fill="#FFFFFF" d="M83.176,189.045l4.904,3.923l0.979-9.054c-0.386-0.371-0.777-0.727-1.181-1.059L83.176,189.045z"/>
<path fill="#FFFFFF" d="M94.767,197.287c0-1.368-0.136-2.681-0.394-3.941L81.21,257.343c3.031-0.809,5.742-2.393,8.128-4.767
	c3.618-3.598,5.429-7.965,5.429-13.105v-4.57l-5.379-2.37l5.379-27.17V197.287z"/>
<path fill="#FFFFFF" d="M91.251,186.394l-8.635,30.368v22.585c0,1.851-0.647,3.424-1.942,4.719s-2.869,1.942-4.718,1.942
	c-0.56,0-1.093-0.066-1.604-0.186l-3.259,11.463c1.625,0.456,3.348,0.688,5.17,0.688c1.735,0,3.383-0.214,4.946-0.63l13.163-63.997
	C93.854,190.814,92.814,188.496,91.251,186.394z"/>
<polygon fill="#FFFFFF" points="94.767,234.9 94.767,205.36 89.388,232.53 "/>
<polygon fill="#FFFFFF" points="142.809,179.71 134.989,179.71 139.486,189.243 "/>
<polygon fill="#FFFFFF" points="127.144,224.67 130.993,213.62 126.336,212.586 123.851,199.355 122.367,204.157 127.144,227.801 
	"/>
<polygon fill="#FFFFFF" points="127.144,235.77 127.144,233.673 115.486,235.306 115.486,257.047 121.544,257.047 122.085,236.781 
	"/>
<polygon fill="#FFFFFF" points="127.144,244.376 122.867,257.047 127.144,257.047 "/>
<polygon fill="#FFFFFF" points="127.144,235.77 122.085,236.781 121.544,257.047 122.867,257.047 127.144,244.376 "/>
<polygon fill="#FFFFFF" points="119.203,200.575 112.848,217.061 115.273,224.053 120.625,205.145 "/>
<polygon fill="#FFFFFF" points="127.144,233.673 127.144,227.801 122.367,204.157 121.346,207.463 120.625,205.145 115.273,224.053 
	115.486,224.67 115.486,235.306 "/>
<polygon fill="#FFFFFF" points="111.146,212.163 110.608,179.71 108.289,179.71 108.445,204.381 "/>
<polygon fill="#FFFFFF" points="108.289,179.71 99.884,179.71 108.445,204.381 "/>
<polygon fill="#FFFFFF" points="119.203,200.575 112.712,179.71 110.608,179.71 111.146,212.163 112.848,217.061 "/>
<polygon fill="#FFFFFF" points="127.621,187.148 126.254,191.571 131.646,211.746 133.244,207.163 "/>
<polygon fill="#FFFFFF" points="126.254,191.571 123.851,199.355 126.336,212.586 130.993,213.62 131.646,211.746 "/>
<polygon fill="#FFFFFF" points="134.989,179.71 129.919,179.71 127.621,187.148 133.244,207.163 139.486,189.243 "/>
</svg>
